VAiN . P R E S E N T S . . .

Dark Skies 2013 WEBRiP READNFO XViD - VAiN

iMDB........: http://www.imdb.com/title/tt2387433/
PLOT........: As the Barret family's peaceful suburban life is rocked by
             an escalating series of disturbing events, they come to learn
             that a terrifying and deadly force is after them.


T E C H N i C A L . i N F O . . .      

General
Complete name                            : ...\Dark Skies 2013 WEBRiP READNFO XViD - VAiN\Dark Skies 2013 WEBRiP READNFO XViD - VAiN.avi
Format                                   : AVI
Format/Info                              : Audio Video Interleave
File size                                : 1.43 GiB
Duration                                 : 1h 33mn
Overall bit rate                         : 2 195 Kbps
Writing application                      : VirtualDubMod 1.5.10.2 (build 2540/release)
Writing library                          : VirtualDubMod build 2540/release

Video
ID                                       : 0
Format                                   : MPEG-4 Visual
Format profile                           : Advanced Simple@L5
Format settings, BVOP                    : 2
Format settings, QPel                    : No
Format settings, GMC                     : No warppoints
Format settings, Matrix                  : Default (H.263)
Muxing mode                              : Packed bitstream
Codec ID                                 : XVID
Codec ID/Hint                            : XviD
Duration                                 : 1h 33mn
Bit rate                                 : 1 993 Kbps
Width                                    : 720 pixels
Height                                   : 304 pixels
Display aspect ratio                     : 2.35:1
Frame rate                               : 25.000 fps
Color space                              : YUV
Chroma subsampling                       : 4:2:0
Bit depth                                : 8 bits
Scan type                                : Progressive
Compression mode                         : Lossy
Bits/(Pixel*Frame)                       : 0.364
Stream size                              : 1.30 GiB (91%)
Writing library                          : XviD 64

Audio
ID                                       : 1
Format                                   : AC-3
Format/Info                              : Audio Coding 3
Mode extension                           : CM (complete main)
Format settings, Endianness              : Big
Codec ID                                 : 2000
Duration                                 : 1h 33mn
Bit rate mode                            : Constant
Bit rate                                 : 192 Kbps
Channel(s)                               : 2 channels
Channel positions                        : Front: L R
Sampling rate                            : 48.0 KHz
Bit depth                                : 16 bits
Compression mode                         : Lossy
Stream size                              : 128 MiB (9%)
Alignment                                : Split accross interleaves
Interleave, duration                     : 40 ms (1.00 video frame)
Interleave, preload duration             : 500 ms




E N C O D E R S . N O T E S . . .      

SOURCE......: Dark Skies.2013.WEB-DL.1080p.Getty (thanks)
             & thanks for audio
SAMPLE......: Yes
ADDED NOTE..: Tweaked a few things,
             Audio isnt bad for cam imo,
             Check the sample first,
             Enjoy....

READNFO.....: Cam audio :/


S C R E E N . S H O T S . . .
 
http://i.imgur.com/nBRKOwo.png 
http://i.imgur.com/YrkBD9m.png 
http://i.imgur.com/agIXNCW.png 
http://i.imgur.com/SooJJ0k.png 
http://i.imgur.com/vSv474j.png

